# xmcd
#
# Track frame offsets: 
#        150
#        12201
#        25607
#        38258
#        50761
#        62712
#        76436
#        89099
#        102630
#        116406
#        131390
#        144903
#        157994
#        172055
#        185919
#        198782
#        212263
#        227672
#        242805
#        256384
#        270310
#        286038
#
# Disc length: 4017 seconds
#
# Revision: 4
# Processed by: cddbd v1.5.2PL0 Copyright (c) Steve Scherf et al.
# Submitted via: ExactAudioCopy v1.0b3
#
DISCID=250faf16
DTITLE=Charley Jordan - Complete Recorded Works, Volume 1
DYEAR=1992
DGENRE=Blues
TTITLE0=Stack O' Dollars Blues
TTITLE1=Dollar Bill Blues
TTITLE2=Keep It Clean
TTITLE3=Big Four Blues
TTITLE4=Just a Spoonful
TTITLE5=Two Street Blues
TTITLE6=Raidin' Squad Blues
TTITLE7=Hunkie Tunkie Blues
TTITLE8=Running Mad Blues
TTITLE9=Gasoline Blues
TTITLE10=Sugar Man Blues - Part 1 (St. Louis Bessie, Vcl)
TTITLE11=Sugar Man Blues - Part 2 (St. Louis Bessie, Vcl)
TTITLE12=Lost Ship Blues
TTITLE13=Hungry Blues
TTITLE14=My "Lovin' Good" Blues
TTITLE15=Tough Times Blues
TTITLE16=Cheating Blues
TTITLE17=Starvation Blues
TTITLE18=Keep It Clean - No. 2
TTITLE19=You Run and Tell Your Daddy
TTITLE20=Tight Haired Mama Blues
TTITLE21=Days of the Weeks Blues
EXTD=
EXTT0=
EXTT1=
EXTT2=
EXTT3=
EXTT4=
EXTT5=
EXTT6=
EXTT7=
EXTT8=
EXTT9=
EXTT10=
EXTT11=
EXTT12=
EXTT13=
EXTT14=
EXTT15=
EXTT16=
EXTT17=
EXTT18=
EXTT19=
EXTT20=
EXTT21=
PLAYORDER=
